<svg width="104" height="26" viewBox="0 0 104 26" fill="none" xmlns="http://www.w3.org/2000/svg">
<path d="M30.1361 9.33612C30.6641 9.33612 31.0961 9.41612 31.4321 9.57612C31.7761 9.72812 32.0801 9.90812 32.3441 10.1161C32.5041 10.2361 32.6241 10.2521 32.7041 10.1641C32.7921 10.0681 32.8521 9.84812 32.8841 9.50412H33.1601C33.1441 9.80012 33.1321 10.1601 33.1241 10.5841C33.1161 11.0081 33.1121 11.5681 33.1121 12.2641H32.8361C32.7801 11.9201 32.7281 11.6481 32.6801 11.4481C32.6321 11.2401 32.5721 11.0641 32.5001 10.9201C32.4361 10.7761 32.3481 10.6321 32.2361 10.4881C31.9881 10.1601 31.6761 9.92412 31.3001 9.78012C30.9241 9.62812 30.5281 9.55212 30.1121 9.55212C29.7201 9.55212 29.3641 9.65212 29.0441 9.85212C28.7321 10.0441 28.4601 10.3241 28.2281 10.6921C28.0041 11.0601 27.8281 11.5041 27.7001 12.0241C27.5801 12.5441 27.5201 13.1281 27.5201 13.7761C27.5201 14.4481 27.5881 15.0441 27.7241 15.5641C27.8601 16.0761 28.0481 16.5081 28.2881 16.8601C28.5361 17.2121 28.8241 17.4801 29.1521 17.6641C29.4881 17.8401 29.8481 17.9281 30.2321 17.9281C30.5921 17.9281 30.9681 17.8561 31.3601 17.7121C31.7521 17.5681 32.0601 17.3361 32.2841 17.0161C32.4601 16.7841 32.5801 16.5321 32.6441 16.2601C32.7161 15.9881 32.7801 15.6081 32.8361 15.1201H33.1121C33.1121 15.8481 33.1161 16.4361 33.1241 16.8841C33.1321 17.3241 33.1441 17.6961 33.1601 18.0001H32.8841C32.8521 17.6561 32.7961 17.4401 32.7161 17.3521C32.6441 17.2641 32.5201 17.2761 32.3441 17.3881C32.0481 17.5961 31.7321 17.7801 31.3961 17.9401C31.0681 18.0921 30.6441 18.1681 30.1241 18.1681C29.3641 18.1681 28.6961 17.9961 28.1201 17.6521C27.5521 17.3081 27.1081 16.8121 26.7881 16.1641C26.4761 15.5161 26.3201 14.7361 26.3201 13.8241C26.3201 12.9281 26.4841 12.1441 26.8121 11.4721C27.1401 10.8001 27.5881 10.2761 28.1561 9.90012C28.7321 9.52412 29.3921 9.33612 30.1361 9.33612ZM40.0778 9.33612C40.8378 9.33612 41.5018 9.50812 42.0698 9.85212C42.6458 10.1961 43.0898 10.6921 43.4018 11.3401C43.7218 11.9801 43.8818 12.7601 43.8818 13.6801C43.8818 14.5761 43.7178 15.3601 43.3898 16.0321C43.0698 16.7041 42.6218 17.2281 42.0458 17.6041C41.4698 17.9801 40.8098 18.1681 40.0658 18.1681C39.3058 18.1681 38.6378 17.9961 38.0618 17.6521C37.4938 17.3081 37.0498 16.8121 36.7298 16.1641C36.4178 15.5161 36.2618 14.7361 36.2618 13.8241C36.2618 12.9281 36.4258 12.1441 36.7538 11.4721C37.0818 10.8001 37.5298 10.2761 38.0978 9.90012C38.6738 9.52412 39.3338 9.33612 40.0778 9.33612ZM40.0298 9.55212C39.5098 9.55212 39.0578 9.73212 38.6738 10.0921C38.2898 10.4521 37.9898 10.9481 37.7738 11.5801C37.5658 12.2121 37.4618 12.9441 37.4618 13.7761C37.4618 14.6241 37.5778 15.3641 37.8098 15.9961C38.0498 16.6201 38.3698 17.1041 38.7698 17.4481C39.1778 17.7841 39.6258 17.9521 40.1138 17.9521C40.6338 17.9521 41.0858 17.7721 41.4698 17.4121C41.8538 17.0521 42.1498 16.5561 42.3578 15.9241C42.5738 15.2841 42.6818 14.5521 42.6818 13.7281C42.6818 12.8721 42.5618 12.1321 42.3218 11.5081C42.0898 10.8841 41.7738 10.4041 41.3738 10.0681C40.9738 9.72412 40.5258 9.55212 40.0298 9.55212ZM54.1466 9.50412V9.74412C53.8746 9.75212 53.6666 9.79212 53.5226 9.86412C53.3866 9.93612 53.2946 10.0521 53.2466 10.2121C53.1986 10.3721 53.1746 10.6001 53.1746 10.8961V18.0601C53.1266 18.0601 53.0786 18.0601 53.0306 18.0601C52.9906 18.0601 52.9466 18.0601 52.8986 18.0601L47.8586 10.2721V16.6081C47.8586 16.8961 47.8826 17.1241 47.9306 17.2921C47.9866 17.4521 48.0906 17.5681 48.2426 17.6401C48.4026 17.7041 48.6386 17.7441 48.9506 17.7601V18.0001C48.8066 17.9841 48.6186 17.9761 48.3866 17.9761C48.1546 17.9681 47.9346 17.9641 47.7266 17.9641C47.5266 17.9641 47.3226 17.9681 47.1146 17.9761C46.9146 17.9761 46.7466 17.9841 46.6106 18.0001V17.7601C46.8826 17.7441 47.0866 17.7041 47.2226 17.6401C47.3666 17.5681 47.4626 17.4521 47.5106 17.2921C47.5586 17.1241 47.5826 16.8961 47.5826 16.6081V10.7761C47.5826 10.4801 47.5586 10.2641 47.5106 10.1281C47.4626 9.98412 47.3666 9.88812 47.2226 9.84012C47.0866 9.78412 46.8826 9.75212 46.6106 9.74412V9.50412C46.7466 9.51212 46.9146 9.52012 47.1146 9.52812C47.3226 9.53612 47.5266 9.54012 47.7266 9.54012C47.9026 9.54012 48.0706 9.53612 48.2306 9.52812C48.3906 9.52012 48.5346 9.51212 48.6626 9.50412L52.8986 16.0321V10.8961C52.8986 10.6001 52.8706 10.3721 52.8146 10.2121C52.7666 10.0521 52.6626 9.93612 52.5026 9.86412C52.3506 9.79212 52.1186 9.75212 51.8066 9.74412V9.50412C51.9506 9.51212 52.1386 9.52012 52.3706 9.52812C52.6106 9.53612 52.8306 9.54012 53.0306 9.54012C53.2386 9.54012 53.4426 9.53612 53.6426 9.52812C53.8506 9.52012 54.0186 9.51212 54.1466 9.50412ZM65.1532 18.2761L65.3332 18.3481C65.2372 18.6761 65.1252 18.9481 64.9972 19.1641C64.8772 19.3881 64.7372 19.5721 64.5772 19.7161C64.4252 19.8521 64.2172 19.9761 63.9532 20.0881C63.6972 20.2001 63.3652 20.2561 62.9572 20.2561C62.5332 20.2561 62.1212 20.1841 61.7212 20.0401C61.3292 19.9041 60.9212 19.7361 60.4972 19.5361C60.0732 19.3361 59.6052 19.1521 59.0932 18.9841C59.0372 18.9681 58.9852 18.9521 58.9372 18.9361C58.8892 18.9201 58.8452 18.9081 58.8052 18.9001C58.6532 18.9561 58.4892 19.0001 58.3132 19.0321C58.1372 19.0641 57.9692 19.0801 57.8092 19.0801C57.6492 19.0801 57.5172 19.0601 57.4132 19.0201C57.3092 18.9801 57.2572 18.9201 57.2572 18.8401C57.2572 18.6721 57.4732 18.5881 57.9052 18.5881C58.1852 18.5881 58.4852 18.6201 58.8052 18.6841C59.0932 18.6041 59.3412 18.5121 59.5492 18.4081C59.7572 18.3121 59.9692 18.2201 60.1852 18.1321C60.4092 18.0441 60.6772 17.9881 60.9892 17.9641L61.0012 18.1561C60.7612 18.1801 60.5532 18.2241 60.3772 18.2881C60.2012 18.3601 60.0252 18.4361 59.8492 18.5161C59.6732 18.5961 59.4652 18.6721 59.2252 18.7441C59.6252 18.8241 60.0612 18.9081 60.5332 18.9961C61.0052 19.0841 61.4612 19.1601 61.9012 19.2241C62.3412 19.2881 62.7172 19.3201 63.0292 19.3201C63.6052 19.3201 64.0572 19.2361 64.3852 19.0681C64.7212 18.9001 64.9772 18.6361 65.1532 18.2761ZM60.6292 9.33612C61.3892 9.33612 62.0532 9.50812 62.6212 9.85212C63.1972 10.1961 63.6412 10.6921 63.9532 11.3401C64.2732 11.9801 64.4332 12.7601 64.4332 13.6801C64.4332 14.5761 64.2692 15.3601 63.9412 16.0321C63.6212 16.7041 63.1732 17.2281 62.5972 17.6041C62.0212 17.9801 61.3612 18.1681 60.6172 18.1681C59.8572 18.1681 59.1892 17.9961 58.6132 17.6521C58.0452 17.3081 57.6012 16.8121 57.2812 16.1641C56.9692 15.5161 56.8132 14.7361 56.8132 13.8241C56.8132 12.9281 56.9772 12.1441 57.3052 11.4721C57.6332 10.8001 58.0812 10.2761 58.6492 9.90012C59.2252 9.52412 59.8852 9.33612 60.6292 9.33612ZM60.5812 9.55212C60.0612 9.55212 59.6092 9.73212 59.2252 10.0921C58.8412 10.4521 58.5412 10.9481 58.3252 11.5801C58.1172 12.2121 58.0132 12.9441 58.0132 13.7761C58.0132 14.6241 58.1292 15.3641 58.3612 15.9961C58.6012 16.6201 58.9212 17.1041 59.3212 17.4481C59.7292 17.7841 60.1772 17.9521 60.6652 17.9521C61.1852 17.9521 61.6372 17.7721 62.0212 17.4121C62.4052 17.0521 62.7012 16.5561 62.9092 15.9241C63.1252 15.2841 63.2332 14.5521 63.2332 13.7281C63.2332 12.8721 63.1132 12.1321 62.8732 11.5081C62.6412 10.8841 62.3252 10.4041 61.9252 10.0681C61.5252 9.72412 61.0772 9.55212 60.5812 9.55212ZM74.5414 9.50412V9.74412C74.2694 9.75212 74.0614 9.79212 73.9174 9.86412C73.7814 9.93612 73.6894 10.0521 73.6414 10.2121C73.5934 10.3721 73.5694 10.6001 73.5694 10.8961V14.5081C73.5694 15.0681 73.5334 15.5561 73.4614 15.9721C73.3894 16.3881 73.2614 16.7481 73.0774 17.0521C72.8774 17.3881 72.5854 17.6601 72.2014 17.8681C71.8174 18.0681 71.3774 18.1681 70.8814 18.1681C70.4974 18.1681 70.1294 18.1201 69.7774 18.0241C69.4334 17.9361 69.1294 17.7681 68.8654 17.5201C68.6334 17.2961 68.4494 17.0601 68.3134 16.8121C68.1854 16.5641 68.0974 16.2601 68.0494 15.9001C68.0014 15.5401 67.9774 15.0881 67.9774 14.5441V10.7761C67.9774 10.4801 67.9534 10.2641 67.9054 10.1281C67.8574 9.98412 67.7614 9.88812 67.6174 9.84012C67.4814 9.78412 67.2774 9.75212 67.0054 9.74412V9.50412C67.1734 9.51212 67.3934 9.52012 67.6654 9.52812C67.9374 9.53612 68.2294 9.54012 68.5414 9.54012C68.8214 9.54012 69.0974 9.53612 69.3694 9.52812C69.6494 9.52012 69.8814 9.51212 70.0654 9.50412V9.74412C69.7934 9.75212 69.5854 9.78412 69.4414 9.84012C69.3054 9.88812 69.2134 9.98412 69.1654 10.1281C69.1174 10.2641 69.0934 10.4801 69.0934 10.7761V14.7481C69.0934 15.1561 69.1134 15.5441 69.1534 15.9121C69.1934 16.2721 69.2734 16.5921 69.3934 16.8721C69.5214 17.1441 69.7134 17.3601 69.9694 17.5201C70.2254 17.6721 70.5654 17.7481 70.9894 17.7481C71.5974 17.7481 72.0654 17.6161 72.3934 17.3521C72.7294 17.0801 72.9614 16.7081 73.0894 16.2361C73.2254 15.7641 73.2934 15.2321 73.2934 14.6401V10.8961C73.2934 10.6001 73.2574 10.3721 73.1854 10.2121C73.1214 10.0521 73.0094 9.93612 72.8494 9.86412C72.6894 9.79212 72.4734 9.75212 72.2014 9.74412V9.50412C72.3454 9.51212 72.5334 9.52012 72.7654 9.52812C73.0054 9.53612 73.2254 9.54012 73.4254 9.54012C73.6334 9.54012 73.8374 9.53612 74.0374 9.52812C74.2454 9.52012 74.4134 9.51212 74.5414 9.50412ZM83.0331 9.50412C83.0011 9.78412 82.9771 10.0561 82.9611 10.3201C82.9531 10.5841 82.9491 10.7841 82.9491 10.9201C82.9491 11.0641 82.9531 11.2041 82.9611 11.3401C82.9691 11.4681 82.9771 11.5761 82.9851 11.6641H82.7091C82.6611 11.1921 82.5931 10.8201 82.5051 10.5481C82.4171 10.2681 82.2651 10.0721 82.0491 9.96012C81.8411 9.84012 81.5251 9.78012 81.1011 9.78012H80.1051C79.8331 9.78012 79.6251 9.80412 79.4811 9.85212C79.3451 9.89212 79.2531 9.98412 79.2051 10.1281C79.1571 10.2641 79.1331 10.4801 79.1331 10.7761V16.7281C79.1331 17.0161 79.1571 17.2321 79.2051 17.3761C79.2531 17.5201 79.3451 17.6161 79.4811 17.6641C79.6251 17.7041 79.8331 17.7241 80.1051 17.7241H80.9811C81.4851 17.7241 81.8651 17.6561 82.1211 17.5201C82.3851 17.3841 82.5731 17.1641 82.6851 16.8601C82.8051 16.5481 82.8931 16.1281 82.9491 15.6001H83.2251C83.2011 15.8161 83.1891 16.1041 83.1891 16.4641C83.1891 16.6161 83.1931 16.8361 83.2011 17.1241C83.2171 17.4041 83.2411 17.6961 83.2731 18.0001C82.8651 17.9841 82.4051 17.9761 81.8931 17.9761C81.3811 17.9681 80.9251 17.9641 80.5251 17.9641C80.3491 17.9641 80.1211 17.9641 79.8411 17.9641C79.5691 17.9641 79.2731 17.9681 78.9531 17.9761C78.6331 17.9761 78.3091 17.9801 77.9811 17.9881C77.6531 17.9881 77.3411 17.9921 77.0451 18.0001V17.7601C77.3171 17.7441 77.5211 17.7121 77.6571 17.6641C77.8011 17.6161 77.8971 17.5201 77.9451 17.3761C77.9931 17.2321 78.0171 17.0161 78.0171 16.7281V10.7761C78.0171 10.4801 77.9931 10.2641 77.9451 10.1281C77.8971 9.98412 77.8011 9.88812 77.6571 9.84012C77.5211 9.78412 77.3171 9.75212 77.0451 9.74412V9.50412C77.3411 9.51212 77.6531 9.52012 77.9811 9.52812C78.3091 9.52812 78.6331 9.53212 78.9531 9.54012C79.2731 9.54012 79.5691 9.54012 79.8411 9.54012C80.1211 9.54012 80.3491 9.54012 80.5251 9.54012C80.8931 9.54012 81.3091 9.54012 81.7731 9.54012C82.2451 9.53212 82.6651 9.52012 83.0331 9.50412ZM80.9691 13.6081C80.9691 13.6081 80.9691 13.6481 80.9691 13.7281C80.9691 13.8081 80.9691 13.8481 80.9691 13.8481H78.7731C78.7731 13.8481 78.7731 13.8081 78.7731 13.7281C78.7731 13.6481 78.7731 13.6081 78.7731 13.6081H80.9691ZM81.3171 12.0241C81.2851 12.4801 81.2691 12.8281 81.2691 13.0681C81.2771 13.3081 81.2811 13.5281 81.2811 13.7281C81.2811 13.9281 81.2851 14.1481 81.2931 14.3881C81.3011 14.6281 81.3211 14.9761 81.3531 15.4321H81.0771C81.0451 15.1761 81.0051 14.9281 80.9571 14.6881C80.9171 14.4401 80.8211 14.2401 80.6691 14.0881C80.5251 13.9281 80.2771 13.8481 79.9251 13.8481V13.6081C80.1891 13.6081 80.3891 13.5561 80.5251 13.4521C80.6691 13.3401 80.7731 13.2001 80.8371 13.0321C80.9011 12.8641 80.9451 12.6921 80.9691 12.5161C80.9931 12.3321 81.0171 12.1681 81.0411 12.0241H81.3171ZM88.6056 9.37212C89.0056 9.37212 89.3096 9.42012 89.5176 9.51612C89.7256 9.60412 89.9096 9.70412 90.0696 9.81612C90.1656 9.87212 90.2416 9.91612 90.2976 9.94812C90.3616 9.97212 90.4216 9.98412 90.4776 9.98412C90.5576 9.98412 90.6136 9.94012 90.6456 9.85212C90.6856 9.76412 90.7176 9.63212 90.7416 9.45612H91.0176C91.0096 9.59212 90.9976 9.75612 90.9816 9.94812C90.9736 10.1321 90.9656 10.3801 90.9576 10.6921C90.9576 10.9961 90.9576 11.4001 90.9576 11.9041H90.6816C90.6576 11.5201 90.5736 11.1521 90.4296 10.8001C90.2856 10.4481 90.0736 10.1601 89.7936 9.93612C89.5216 9.71212 89.1616 9.60012 88.7136 9.60012C88.2896 9.60012 87.9376 9.72812 87.6576 9.98412C87.3856 10.2401 87.2496 10.5761 87.2496 10.9921C87.2496 11.3521 87.3416 11.6561 87.5256 11.9041C87.7096 12.1441 87.9536 12.3641 88.2576 12.5641C88.5696 12.7561 88.9056 12.9641 89.2656 13.1881C89.6816 13.4441 90.0496 13.7001 90.3696 13.9561C90.6976 14.2041 90.9536 14.4801 91.1376 14.7841C91.3296 15.0881 91.4256 15.4561 91.4256 15.8881C91.4256 16.4001 91.3096 16.8241 91.0776 17.1601C90.8456 17.4961 90.5376 17.7481 90.1536 17.9161C89.7696 18.0841 89.3456 18.1681 88.8816 18.1681C88.4576 18.1681 88.1216 18.1201 87.8736 18.0241C87.6256 17.9281 87.4136 17.8281 87.2376 17.7241C87.0616 17.6121 86.9256 17.5561 86.8296 17.5561C86.7496 17.5561 86.6896 17.6001 86.6496 17.6881C86.6176 17.7761 86.5896 17.9081 86.5656 18.0841H86.2896C86.3056 17.9161 86.3136 17.7201 86.3136 17.4961C86.3216 17.2641 86.3256 16.9641 86.3256 16.5961C86.3336 16.2281 86.3376 15.7641 86.3376 15.2041H86.6136C86.6456 15.6841 86.7336 16.1321 86.8776 16.5481C87.0296 16.9641 87.2576 17.3001 87.5616 17.5561C87.8736 17.8041 88.2856 17.9281 88.7976 17.9281C89.0616 17.9281 89.3096 17.8761 89.5416 17.7721C89.7816 17.6601 89.9776 17.4881 90.1296 17.2561C90.2816 17.0161 90.3576 16.7081 90.3576 16.3321C90.3576 16.0041 90.2776 15.7201 90.1176 15.4801C89.9656 15.2321 89.7496 15.0041 89.4696 14.7961C89.1896 14.5801 88.8616 14.3601 88.4856 14.1361C88.1096 13.9041 87.7576 13.6681 87.4296 13.4281C87.1016 13.1881 86.8376 12.9121 86.6376 12.6001C86.4456 12.2801 86.3496 11.8961 86.3496 11.4481C86.3496 10.9761 86.4536 10.5881 86.6616 10.2841C86.8776 9.97212 87.1576 9.74412 87.5016 9.60012C87.8456 9.44812 88.2136 9.37212 88.6056 9.37212ZM100.798 9.50412C100.766 9.80812 100.742 10.1041 100.726 10.3921C100.718 10.6721 100.714 10.8881 100.714 11.0401C100.714 11.2321 100.718 11.4121 100.726 11.5801C100.734 11.7481 100.742 11.8961 100.75 12.0241H100.474C100.418 11.4641 100.342 11.0241 100.246 10.7041C100.15 10.3761 99.9821 10.1401 99.7421 9.99612C99.5021 9.85212 99.1301 9.78012 98.6261 9.78012H97.9781V16.6081C97.9781 16.9281 98.0061 17.1681 98.0621 17.3281C98.1261 17.4881 98.2461 17.5961 98.4221 17.6521C98.5981 17.7081 98.8541 17.7441 99.1901 17.7601V18.0001C98.9821 17.9841 98.7181 17.9761 98.3981 17.9761C98.0781 17.9681 97.7541 17.9641 97.4261 17.9641C97.0661 17.9641 96.7261 17.9681 96.4061 17.9761C96.0941 17.9761 95.8421 17.9841 95.6501 18.0001V17.7601C95.9861 17.7441 96.2421 17.7081 96.4181 17.6521C96.5941 17.5961 96.7101 17.4881 96.7661 17.3281C96.8301 17.1681 96.8621 16.9281 96.8621 16.6081V9.78012H96.2141C95.7181 9.78012 95.3461 9.85212 95.0981 9.99612C94.8581 10.1401 94.6901 10.3761 94.5941 10.7041C94.4981 11.0241 94.4221 11.4641 94.3661 12.0241H94.0901C94.1061 11.8961 94.1141 11.7481 94.1141 11.5801C94.1221 11.4121 94.1261 11.2321 94.1261 11.0401C94.1261 10.8881 94.1181 10.6721 94.1021 10.3921C94.0941 10.1041 94.0741 9.80812 94.0421 9.50412C94.3781 9.51212 94.7421 9.52012 95.1341 9.52812C95.5341 9.53612 95.9341 9.54012 96.3341 9.54012C96.7341 9.54012 97.0981 9.54012 97.4261 9.54012C97.7541 9.54012 98.1141 9.54012 98.5061 9.54012C98.9061 9.54012 99.3061 9.53612 99.7061 9.52812C100.106 9.52012 100.47 9.51212 100.798 9.50412Z" fill="#555248"/>
<path d="M21.0099 8.69422C21.8207 10.2063 22.1602 11.8437 22.0802 13.4397C21.9256 16.5216 20.2074 19.4467 17.2917 21.0102C15.5877 21.9239 13.7244 22.2392 11.9404 22.0298C9.08509 21.6946 6.43639 20.0159 4.97576 17.2919C2.60158 12.8642 4.2663 7.35014 8.694 4.97595C9.74841 4.41057 10.8633 4.07455 11.9822 3.94988C13.622 3.76717 15.2725 4.03821 16.754 4.70955C18.5103 5.50539 20.0281 6.86311 21.0099 8.69422Z" stroke="url(#paint0_linear_0_495)"/>
<defs>
<linearGradient id="paint0_linear_0_495" x1="3.75599" y1="11.7234" x2="23.9646" y2="12.9921" gradientUnits="userSpaceOnUse">
<stop offset="0.288448" stop-color="#555248"/>
<stop offset="0.780176" stop-color="#1B1A17" stop-opacity="0"/>
</linearGradient>
</defs>
</svg>
